<svg xmlns="http://www.w3.org/2000/svg" viewBox="0 0 598.1 149.64"><defs><style>.cls-1{fill:#fff;}.cls-2{fill:#4f7838;}.cls-3{fill:#6c9c40;}.cls-4{fill:#93ba45;}</style></defs><title>Chess.comAsset 2svg</title><g id="Layer_2" data-name="Layer 2"><g id="Layer_1-2" data-name="Layer 1"><path class="cls-1" d="M77,94.05a54.47,54.47,0,0,1,0-26.21A40.59,40.59,0,0,1,82,56.22a37.2,37.2,0,0,1,8.5-9.36,38.27,38.27,0,0,1,12.31-6.22A54,54,0,0,1,119,38.36q11.3,0,18.9,2.51c5.06,1.67,3.84,1.84,4.85,1.84l-.35,18.66a43.73,43.73,0,0,0-10-4.92A42,42,0,0,0,119,54.62a27.88,27.88,0,0,0-10.92,2,19.09,19.09,0,0,0-7.62,5.6,24.94,24.94,0,0,0-4.36,8.32,37.81,37.81,0,0,0,0,20.81,25,25,0,0,0,4.36,8.33,19.19,19.19,0,0,0,7.62,5.6,27.88,27.88,0,0,0,10.92,2q13.77,0,23.4-6.75l.35,18.39c-1,1,.21.45-4.85,2.12s-11.37,2.5-18.9,2.5a54,54,0,0,1-16.18-2.28A38.27,38.27,0,0,1,90.53,115a37,37,0,0,1-8.5-9.36A40.47,40.47,0,0,1,77,94.05Z"/><path class="cls-1" d="M178,91.24v30H159.57V36H178V69.47q5.13-7.81,15.47-7.82,13.89,0,20.25,7.6t6.36,22v30H201.65v-30q0-7.59-2.7-11.5t-9.11-3.91q-6.42,0-9.12,3.91T178,91.24Z"/><path class="cls-1" d="M279.67,104.07l9.11,10.35Q278.15,123,261.16,123a39.61,39.61,0,0,1-14.74-2.54,24.85,24.85,0,0,1-10-6.89,29.55,29.55,0,0,1-5.48-9.7,35.91,35.91,0,0,1-1.8-11.53A37.57,37.57,0,0,1,230.22,83a28.31,28.31,0,0,1,9.85-15.13,27.33,27.33,0,0,1,9.08-4.56,41.17,41.17,0,0,1,12-1.66q16.43,0,24.53,9.9t6.41,27.57H248.28a10.6,10.6,0,0,0,.65,3.71,9.75,9.75,0,0,0,2,3.26,9.47,9.47,0,0,0,4,2.39,19.54,19.54,0,0,0,6.19.87Q272.25,109.35,279.67,104.07ZM248.34,87.19H274a13.19,13.19,0,0,0-.62-4,12.9,12.9,0,0,0-2-3.8,9.5,9.5,0,0,0-4-3,17.8,17.8,0,0,0-12.43,0,9.47,9.47,0,0,0-4,3,12.58,12.58,0,0,0-2.61,7.82Z"/><path class="cls-1" d="M350.54,67.67l-7,11.87A43.73,43.73,0,0,0,326,75.83q-7.09,0-7.09,4c0,1.31.79,2.34,2.36,3.09a27.68,27.68,0,0,0,6.81,1.91,87.87,87.87,0,0,1,10.58,2.7,35.23,35.23,0,0,1,7.81,3.72,14.57,14.57,0,0,1,5.21,5.57,16.72,16.72,0,0,1,1.71,7.76A15.52,15.52,0,0,1,345,118.86a32.55,32.55,0,0,1-8.66,3.09A49.2,49.2,0,0,1,326,123q-18.39,0-28-7.6l7-11.87a42.17,42.17,0,0,0,21,5.29,19,19,0,0,0,6.69-.9,3.26,3.26,0,0,0,2.25-3.26,3.51,3.51,0,0,0-2.11-3.4,35.17,35.17,0,0,0-7.79-2.17q-12.54-2.37-18.56-7a14.67,14.67,0,0,1-6-12.15q0-8.77,6.72-13.5T326,61.65Q340.59,61.65,350.54,67.67Z"/><path class="cls-1" d="M410.39,67.67l-7,11.87a43.73,43.73,0,0,0-17.55-3.71q-7.1,0-7.09,4c0,1.31.79,2.34,2.36,3.09A27.68,27.68,0,0,0,388,84.88a87.87,87.87,0,0,1,10.58,2.7,35.23,35.23,0,0,1,7.81,3.72,14.57,14.57,0,0,1,5.21,5.57,16.72,16.72,0,0,1,1.71,7.76,15.52,15.52,0,0,1-8.41,14.23,32.55,32.55,0,0,1-8.66,3.09,49.2,49.2,0,0,1-10.32,1q-18.39,0-28-7.6l7-11.87a42.17,42.17,0,0,0,21,5.29,19,19,0,0,0,6.69-.9,3.26,3.26,0,0,0,2.25-3.26,3.51,3.51,0,0,0-2.11-3.4,35.17,35.17,0,0,0-7.79-2.17q-12.54-2.37-18.56-7a14.67,14.67,0,0,1-6-12.15q0-8.77,6.72-13.5t18.82-4.73Q400.43,61.65,410.39,67.67Z"/><path class="cls-1" d="M420.65,119.68a6.84,6.84,0,1,1,4.83,2A6.57,6.57,0,0,1,420.65,119.68Z"/><path class="cls-1" d="M451.32,92.57a11.83,11.83,0,0,0-2.93,8.43,11.83,11.83,0,0,0,2.93,8.43,10.51,10.51,0,0,0,8,3.11,17.31,17.31,0,0,0,11.42-4.06l6.18,7.52q-6,6.47-17.6,6.46-10.83,0-17.35-5.93T435.48,101q0-9.6,6.51-15.53t17.35-5.93q11.66,0,17.6,6.46l-6.18,7.52a17.36,17.36,0,0,0-11.42-4.06A10.51,10.51,0,0,0,451.32,92.57Z"/><path class="cls-1" d="M520.84,116.51q-6.52,6-17.32,5.95t-17.33-5.95q-6.53-5.94-6.53-15.51t6.51-15.53q6.52-5.93,17.35-5.93t17.34,5.93q6.52,5.93,6.52,15.53T520.84,116.51Zm-25.43-7.16c1.89,2.12,4.59,3.19,8.11,3.19s6.22-1.07,8.11-3.19a12.1,12.1,0,0,0,2.83-8.35,12.1,12.1,0,0,0-2.83-8.35c-1.89-2.12-4.59-3.19-8.11-3.19s-6.22,1.07-8.11,3.19a12.11,12.11,0,0,0-2.84,8.35A12.11,12.11,0,0,0,495.41,109.35Z"/><path class="cls-1" d="M533.68,121.28V80.72h12.91V84.9a10.22,10.22,0,0,1,1.89-2.82,6.79,6.79,0,0,1,2.45-1.63,12.85,12.85,0,0,1,2.54-.71,16.52,16.52,0,0,1,2.65-.2q9.76,0,13.75,7.32,3.38-7.32,12-7.32,8,0,12.13,5t4.1,13.76v23H585.18v-23q0-8.82-6.42-8.82t-6.41,8.82v23H559.43v-23q0-8.82-6.42-8.82t-6.42,8.82v23Z"/><path class="cls-2" d="M100.1,134.15c-1.87-4-7.28-4.19-12.19-6.1-8-3.12-12.75-8.9-16.26-13.21-10.31-12.65-10.21-28-10.16-35.56.06-8.49.1-14.5,4.07-20.32,3.29-4.82,7.11-10.16,7.11-10.16l-9.15-4.06a57.16,57.16,0,0,0,7.12-8.13c4.8-6.8,3.42-15.31,3-17.27C73.39,17.8,71.4,8.28,62.51,3.08c-.42-.24-.83-.46-1.24-.66,2.79,3.22,6.65,9.76,7.33,20,1,15.24-16.25,20.32-16.25,20.32s9.14,8.12,10.16,12.19-3,10.16-3,10.16H21.87l-1.13-2.82c.41,1.5.82,2.91,1.13,3.84H36.09a32.45,32.45,0,0,1,.51,5.2,34.76,34.76,0,0,1,7.62.89c8.13,2,9.14,3,11.18,7.11s-1,10.16-2,19.31S47.27,123,45.24,125s-7.12,3.05-7.12,3.05-15.24,1-25.4,0A25.77,25.77,0,0,1,2,124.73c-.15.42-.3.85-.43,1.29-1.1,3.6-2.85,9.32,0,14.22.72,1.25,2.45,3.67,8.12,6.1,7.56,3.24,14.21,3.11,20.33,3,20.25-.22-7.81.67,28.44,0a167.93,167.93,0,0,0,26.42-2c8.09-1.35,13.46-3,15.24-7.12A8.06,8.06,0,0,0,100.1,134.15Z"/><path class="cls-3" d="M38.12,128.05s5.08-1,7.12-3.05,7.11-17.27,8.12-26.41,4.07-15.24,2-19.31-3-5.08-11.18-7.11a34.76,34.76,0,0,0-7.62-.89,25.51,25.51,0,0,1-.51,6,35.38,35.38,0,0,1-3.24,10.19A34.14,34.14,0,0,1,28,94.52c-5.32,6.18-8.62,7.91-13.21,12.2-3.62,3.38-9.69,9.2-12.77,18a25.77,25.77,0,0,0,10.74,3.32C22.88,129.07,38.12,128.05,38.12,128.05Z"/><path class="cls-3" d="M59.46,65.06s4.06-6.1,3-10.16S52.35,42.71,52.35,42.71,69.62,37.63,68.6,22.39c-.68-10.21-4.54-16.75-7.33-20A24,24,0,0,0,49.3,0,24.59,24.59,0,0,0,35.08,5.11a24.66,24.66,0,0,0-9.15,17.28c-.08,1.28-.6,12.1,6.1,17.27,2.14,1.65,4.06,3.05,4.06,3.05S28,50.77,18.82,54.9c0,0,1,3.92,1.92,7.34l1.13,2.82ZM34.06,17.31c-1-3,0-6.1,4.06-9.15a19.25,19.25,0,0,1,4.07-3c2-1,8.13-1,10.16,0s2,4.07,0,7.12S41.17,22.39,39.14,22.39,35.08,20.35,34.06,17.31Z"/><path class="cls-4" d="M39.14,22.39c2,0,11.18-7.12,13.21-10.16s2-6.1,0-7.12-8.13-1-10.16,0a19.25,19.25,0,0,0-4.07,3.05c-4.06,3.05-5.08,6.1-4.06,9.15S37.11,22.39,39.14,22.39Z"/></g></g></svg>