<?xml version="1.0" encoding="utf-8"?>
<!-- Generator: Adobe Illustrator 22.1.0, SVG Export Plug-In . SVG Version: 6.00 Build 0)  -->
<svg version="1.1" id="Layer_1" xmlns="http://www.w3.org/2000/svg" xmlns:xlink="http://www.w3.org/1999/xlink" x="0px" y="0px"
	 viewBox="0 0 978 172" style="enable-background:new 0 0 978 172;" xml:space="preserve">
<style type="text/css">
	.st0{fill:#FFFFFF;}
	.st1{fill:#4D3091;}
</style>
<g>
	<g>
		<polygon class="st0" points="7.7,167.7 7.7,61.5 29.6,39.7 116.4,39.7 116.4,134.3 54.9,134.3 54.9,167.7 		"/>
		<path class="st1" d="M112.2,43.9v86.1H50.7v33.4H12V63.3l19.3-19.3H112.2 M120.7,35.4h-8.5H31.3h-3.5l-2.5,2.5L6,57.3l-2.5,2.5
			v3.5v100.2v8.5H12h38.7h8.5v-8.5v-24.9h53h8.5v-8.5V43.9V35.4L120.7,35.4z"/>
	</g>
	<g>
		<polygon class="st0" points="138.5,134.3 116.7,112.5 116.7,61.5 138.5,39.7 210.7,39.7 230.6,61.6 230.6,112.5 208.8,134.3 		"/>
		<path class="st1" d="M208.8,43.9l17.6,19.3v47.4l-19.3,19.3h-66.8L121,110.7V63.3l19.3-19.3H208.8 M212.6,35.4h-3.8h-68.5h-3.5
			l-2.5,2.5l-19.3,19.3l-2.5,2.5v3.5v47.4v3.5l2.5,2.5l19.3,19.3l2.5,2.5h3.5h66.8h3.5l2.5-2.5l19.3-19.3l2.5-2.5v-3.5V63.3V60
			l-2.2-2.4l-17.6-19.3L212.6,35.4L212.6,35.4z"/>
	</g>
	<g>
		<polygon class="st0" points="257.3,167.7 257.3,134.6 283.7,134.6 283.7,134.3 230.9,134.3 230.9,39.7 330.8,39.7 330.8,167.7 		
			"/>
		<path class="st1" d="M326.6,43.9v119.5h-65v-24.6h26.4v-8.8h-52.7V43.9H326.6 M335.1,35.4h-8.5h-91.4h-8.5v8.5v86.1v8.5h8.5H253
			v0.3v24.6v8.5h8.5h65h8.5v-8.5V43.9V35.4L335.1,35.4z"/>
	</g>
	<g>
		<polygon class="st0" points="352.9,134.3 331.1,112.5 331.1,61.5 352.9,39.7 418.7,39.7 418.7,86.9 380,86.9 380,87.1 418.7,87.1 
			418.7,134.3 		"/>
		<path class="st1" d="M414.4,43.9v38.7h-38.7v8.8h38.7v38.7h-59.8l-19.3-19.3V63.3l19.3-19.3H414.4 M422.9,35.4h-8.5h-59.8h-3.5
			l-2.5,2.5l-19.3,19.3l-2.5,2.5v3.5v47.4v3.5l2.5,2.5l19.3,19.3l2.5,2.5h3.5h59.8h8.5v-8.5V91.4v-0.3v-8.5V43.9V35.4L422.9,35.4z"
			/>
	</g>
	<g>
		<polygon class="st0" points="468.2,134.3 468.2,86.9 466.1,86.9 466.1,134.3 419,134.3 419,6.3 466.1,6.3 466.1,39.7 493.5,39.7 
			515.3,61.5 515.3,134.3 		"/>
		<path class="st1" d="M461.9,10.6v33.4h29.9l19.3,19.3v66.8h-38.7V82.6h-10.5v47.4h-38.7V10.6H461.9 M470.4,2.1h-8.5h-38.7h-8.5
			v8.5v119.5v8.5h8.5h38.7h8.5h2h38.7h8.5v-8.5V63.3v-3.5l-2.5-2.5l-19.3-19.3l-2.5-2.5h-3.5h-21.4V10.6V2.1L470.4,2.1z"/>
	</g>
	<g>
		<polygon class="st0" points="537.3,134.3 517.4,112.4 517.4,61.6 537.3,39.7 631.3,39.7 631.3,134.3 		"/>
		<path class="st1" d="M627.1,43.9v86.1h-87.9l-17.6-19.3V63.3l17.6-19.3H627.1 M635.6,35.4h-8.5h-87.9h-3.8l-2.5,2.8l-17.6,19.3
			l-2.2,2.4v3.3v47.4v3.3l2.2,2.4l17.6,19.3l2.5,2.8h3.8h87.9h8.5v-8.5V43.9V35.4L635.6,35.4z"/>
	</g>
	<g>
		<polygon class="st0" points="728.3,134.3 728.3,85.1 726.2,85.1 726.2,134.3 680.8,134.3 680.8,85.1 678.8,85.1 678.8,134.3 
			631.6,134.3 631.6,39.7 753.6,39.7 775.4,61.5 775.4,134.3 		"/>
		<path class="st1" d="M751.8,43.9l19.3,19.3v66.8h-38.7V80.8H722v49.2h-36.9V80.8h-10.5v49.2h-38.7V43.9H751.8 M755.4,35.4h-3.5
			h-116h-8.5v8.5v86.1v8.5h8.5h38.7h8.5h2H722h8.5h2h38.7h8.5v-8.5V63.3v-3.5l-2.5-2.5l-19.3-19.3L755.4,35.4L755.4,35.4z"/>
	</g>
	<g>
		<polygon class="st0" points="777.5,167.7 777.5,61.5 799.3,39.7 886.1,39.7 886.1,134.3 824.6,134.3 824.6,167.7 		"/>
		<path class="st1" d="M881.9,43.9v86.1h-61.5v33.4h-38.7V63.3l19.3-19.3H881.9 M890.4,35.4h-8.5h-80.8h-3.5l-2.5,2.5l-19.3,19.3
			l-2.5,2.5v3.5v100.2v8.5h8.5h38.7h8.5v-8.5v-24.9h53h8.5v-8.5V43.9V35.4L890.4,35.4z"/>
	</g>
	<g>
		<polygon class="st0" points="886.4,134.3 886.4,52.3 906.9,37.9 972.3,37.9 972.3,120 951.8,134.3 		"/>
		<path class="st1" d="M968,42.2v26.4h-38.7v7H968v42.2l-17.6,12.3h-59.8v-26.4h38.7v-5.3h-38.7V54.5l17.6-12.3H968 M976.5,33.7H968
			h-59.8h-2.7l-2.2,1.5l-17.6,12.3l-3.6,2.5v4.4v43.9v8.5v23.1v8.5h8.5h59.8h2.7l2.2-1.5l17.6-12.3l3.6-2.5v-4.4V77.1v-8.5V42.2
			V33.7L976.5,33.7z"/>
	</g>
	<rect x="50.7" y="82.6" class="st1" width="22.8" height="10.5"/>
	<rect x="159.6" y="82.6" class="st1" width="29.9" height="10.5"/>
	<rect x="268.6" y="82.6" class="st1" width="19.3" height="10.5"/>
	<rect x="375.8" y="82.6" class="st1" width="38.7" height="10.5"/>
	<rect x="558.5" y="82.6" class="st1" width="29.9" height="10.5"/>
	<rect x="820.4" y="82.6" class="st1" width="22.8" height="10.5"/>
</g>
</svg>
