<?xml version="1.0" encoding="utf-8"?>
<!-- Generator: Adobe Illustrator 22.1.0, SVG Export Plug-In . SVG Version: 6.00 Build 0)  -->
<svg version="1.1" id="Layer_1" xmlns="http://www.w3.org/2000/svg" xmlns:xlink="http://www.w3.org/1999/xlink" x="0px" y="0px"
	 viewBox="0 0 1058.6 198.1" style="enable-background:new 0 0 1058.6 198.1;" xml:space="preserve">
<style type="text/css">
	.st0{fill:#FFFFFF;}
	.st1{fill:#4B0B6D;}
	.st2{fill:#FAFF57;}
</style>
<g>
	<g>
		<polygon class="st0" points="4.2,193.8 4.2,87.6 26.1,65.8 112.9,65.8 112.9,160.4 51.4,160.4 51.4,193.8 		"/>
		<path class="st1" d="M108.7,70v86.1H47.2v33.4H8.5V89.4l19.3-19.3h80.9 M117.2,61.5h-8.5H27.9h-3.5L21.9,64L2.5,83.4L0,85.9v3.5
			v100.2v8.5h8.5h38.7h8.5v-8.5v-24.9h53h8.5v-8.5V70.1V61.5L117.2,61.5z"/>
	</g>
	<g>
		<polygon class="st0" points="135,160.4 113.2,138.6 113.2,87.6 135,65.8 207.2,65.8 227.1,87.7 227.1,138.6 205.3,160.4 		"/>
		<path class="st1" d="M205.3,70l17.6,19.3v47.4L203.6,156h-66.8l-19.3-19.2V89.4l19.3-19.3h68.5 M209.1,61.5h-3.8h-68.5h-3.5
			l-2.5,2.5l-19.3,19.3l-2.5,2.5v3.5v47.4v3.5l2.5,2.5l19.3,19.3l2.5,2.5h3.5h66.8h3.5l2.5-2.5l19.3-19.3l2.5-2.5v-3.5V89.3v-3.2
			l-2.2-2.4l-17.6-19.3L209.1,61.5L209.1,61.5z"/>
	</g>
	<g>
		<polygon class="st0" points="253.8,193.8 253.8,160.7 280.2,160.7 280.2,160.4 227.4,160.4 227.4,65.8 327.3,65.8 327.3,193.8 		
			"/>
		<path class="st1" d="M323.1,70v119.5h-65v-24.6h26.4v-8.8h-52.7V70H323.1 M331.6,61.5h-8.5h-91.4h-8.5V70v86.1v8.5h8.5h17.8v0.3
			v24.6v8.5h8.5h65h8.5v-8.5V70v-8.5H331.6z"/>
	</g>
	<g>
		<polygon class="st0" points="349.4,160.4 327.6,138.6 327.6,87.6 349.4,65.8 415.2,65.8 415.2,113 376.5,113 376.5,113.2 
			415.2,113.2 415.2,160.4 		"/>
		<path class="st1" d="M410.9,70v38.7h-38.7v8.8h38.7v38.7h-59.8l-19.3-19.3V89.5l19.3-19.3h59.8 M419.4,61.5h-8.5h-59.8h-3.5
			l-2.5,2.5l-19.3,19.3l-2.5,2.5v3.5v47.4v3.5l2.5,2.5l19.3,19.3l2.5,2.5h3.5h59.8h8.5V156v-38.7V117v-8.5V69.8V61.5L419.4,61.5z"/>
	</g>
	<g>
		<polygon class="st0" points="464.7,160.4 464.7,113 462.6,113 462.6,160.4 415.5,160.4 415.5,32.4 462.6,32.4 462.6,65.8 
			490,65.8 511.8,87.6 511.8,160.4 		"/>
		<path class="st1" d="M458.4,36.7v33.4h29.9l19.3,19.3v66.8h-38.7v-47.4h-10.5v47.4h-38.7V36.7H458.4 M466.9,28.2h-8.5h-38.7h-8.5
			v8.5v119.5v8.5h8.5h38.7h8.5h2h38.7h8.5v-8.5V89.4v-3.5l-2.5-2.5l-19.3-19.3l-2.5-2.5h-3.5h-21.4V36.7V28.2L466.9,28.2z"/>
	</g>
	<g>
		<polygon class="st0" points="533.8,160.4 513.9,138.5 513.9,87.7 533.8,65.8 627.8,65.8 627.8,160.4 		"/>
		<path class="st1" d="M623.6,70v86.1h-87.9l-17.6-19.3V89.4l17.6-19.3h87.9 M632.1,61.5h-8.5h-87.9h-3.8l-2.5,2.8l-17.6,19.3
			l-2.2,2.4v3.3v47.4v3.3l2.2,2.4l17.6,19.3l2.5,2.8h3.8h87.9h8.5V156V69.9V61.5L632.1,61.5z"/>
	</g>
	<g>
		<polygon class="st0" points="724.8,160.4 724.8,111.2 722.7,111.2 722.7,160.4 677.3,160.4 677.3,111.2 675.3,111.2 675.3,160.4 
			628.1,160.4 628.1,65.8 750.1,65.8 771.9,87.6 771.9,160.4 		"/>
		<path class="st1" d="M748.3,70l19.3,19.3v66.8h-38.7v-49.2h-10.4v49.2h-36.9v-49.2h-10.5v49.2h-38.7V70H748.3 M751.9,61.5h-3.5
			h-116h-8.5V70v86.1v8.5h8.5h38.7h8.5h2h36.9h8.5h2h38.7h8.5v-8.5V89.3v-3.5l-2.5-2.5L754.4,64L751.9,61.5L751.9,61.5z"/>
	</g>
	<g>
		<polygon class="st0" points="774,193.8 774,87.6 795.8,65.8 882.6,65.8 882.6,160.4 821.1,160.4 821.1,193.8 		"/>
		<path class="st1" d="M878.4,70v86.1h-61.5v33.4h-38.7V89.4l19.3-19.3h80.9 M886.9,61.5h-8.5h-80.8h-3.5l-2.5,2.5l-19.3,19.3
			l-2.5,2.5v3.5v100.2v8.5h8.5H817h8.5v-8.5v-24.9h53h8.5v-8.5V70v-8.5H886.9z"/>
	</g>
	<g>
		<polygon class="st0" points="882.9,160.4 882.9,78.4 903.4,64 968.8,64 968.8,146.1 948.3,160.4 		"/>
		<path class="st1" d="M964.5,68.3v26.4h-38.7v7h38.7v42.2l-17.6,12.3h-59.8v-26.4h38.7v-5.3h-38.7V80.6l17.6-12.3L964.5,68.3
			 M973,59.8h-8.5h-59.8H902l-2.2,1.5l-17.6,12.3l-3.6,2.5v4.4v43.9v8.5V156v8.5h8.5h59.8h2.7l2.2-1.5l17.6-12.3l3.6-2.5v-4.4v-40.7
			v-8.5V68.2L973,59.8L973,59.8z"/>
	</g>
	<rect x="47.2" y="108.7" class="st1" width="22.8" height="10.5"/>
	<rect x="156.1" y="108.7" class="st1" width="29.9" height="10.5"/>
	<rect x="265.1" y="108.7" class="st1" width="19.3" height="10.5"/>
	<rect x="372.3" y="108.7" class="st1" width="38.7" height="10.5"/>
	<rect x="555" y="108.7" class="st1" width="29.9" height="10.5"/>
	<rect x="816.9" y="108.7" class="st1" width="22.8" height="10.5"/>
</g>
<g>
	<path class="st2" d="M1020.5,99.3c-18.2,0-45.3-0.4-45.6-0.4l-4.2-0.1V4.3l67.5,0.5l16,16v61.4l-1.1,1.2
		c-1.2,1.3-12.1,13.1-13.1,14.1C1038.5,99.1,1038.3,99.3,1020.5,99.3L1020.5,99.3z"/>
	<path class="st1" d="M975,8.6l61.5,0.5l13.5,13.5v58c0,0-12,13-13,14c-0.3,0.3-7.3,0.4-16.5,0.4c-18.4,0-45.5-0.4-45.5-0.4v-26h50
		v-5h-50v-24h50v-5h-50V8.6 M966.5,0v8.6v26v8.5v20.5v8.5v22.5v8.4l8.4,0.1c0.3,0,27.4,0.4,45.6,0.4c5,0,9,0,11.8-0.1
		c5.2-0.1,8.1-0.2,10.8-2.8c1-1,10.4-11.2,13.2-14.2l2.3-2.4v-3.3v-58v-3.6l-2.5-2.5l-13.6-13.5l-2.5-2.5h-3.5L975,0.1L966.5,0
		L966.5,0z"/>
</g>
</svg>
