<svg xmlns="http://www.w3.org/2000/svg" id="Layer_1" x="0" y="0" version="1.1" viewBox="0 0 978 172" xml:space="preserve">
  <style>
    .st0{fill:#fff}.st1{fill:#4d3091}
  </style>
  <path d="M7.7 167.7V61.5l21.9-21.8h86.8v94.6H54.9v33.4z" class="st0"/>
  <path d="M112.2 43.9V130H50.7v33.4H12V63.3L31.3 44h80.9m8.5-8.6H27.8l-2.5 2.5L6 57.3l-2.5 2.5V172h55.7v-33.4h61.5V35.4z" class="st1"/>
  <path d="M138.5 134.3l-21.8-21.8v-51l21.8-21.8h72.2l19.9 21.9v50.9l-21.8 21.8z" class="st0"/>
  <path d="M208.8 43.9l17.6 19.3v47.4l-19.3 19.3h-66.8L121 110.7V63.3L140.3 44h68.5m3.8-8.6h-75.8l-2.5 2.5L115 57.2l-2.5 2.5v54.4l2.5 2.5 19.3 19.3 2.5 2.5h73.8l2.5-2.5 19.3-19.3 2.5-2.5V60l-2.2-2.4-17.6-19.3-2.5-2.9z" class="st1"/>
  <path d="M257.3 167.7v-33.1h26.4v-.3h-52.8V39.7h99.9v128z" class="st0"/>
  <path d="M326.6 43.9v119.5h-65v-24.6H288V130h-52.7V43.9h91.3m8.5-8.5H226.7v103.1H253V171.9h82V35.4h.1z" class="st1"/>
  <path d="M352.9 134.3l-21.8-21.8v-51l21.8-21.8h65.8v47.2H380v.2h38.7v47.2z" class="st0"/>
  <path d="M414.4 43.9v38.7h-38.7v8.8h38.7v38.7h-59.8l-19.3-19.3V63.3L354.6 44h59.8m8.5-8.6h-71.8l-2.5 2.5-19.3 19.3-2.5 2.5v54.4l2.5 2.5 19.3 19.3 2.5 2.5h71.8v-103z" class="st1"/>
  <path d="M468.2 134.3V86.9h-2.1v47.4H419V6.3h47.1v33.4h27.4l21.8 21.8v72.8z" class="st0"/>
  <path d="M461.9 10.6V44h29.9l19.3 19.3v66.8h-38.7V82.6h-10.5V130h-38.7V10.6h38.7m8.5-8.5h-55.7v136.5h104.9V59.8l-2.5-2.5L497.8 38l-2.5-2.5h-24.9V2.1z" class="st1"/>
  <path d="M537.3 134.3l-19.9-21.9V61.6l19.9-21.9h94v94.6z" class="st0"/>
  <path d="M627.1 43.9V130h-87.9l-17.6-19.3V63.3L539.2 44h87.9m8.5-8.6H535.4l-2.5 2.8-17.6 19.3-2.2 2.4V113.9l2.2 2.4 17.6 19.3 2.5 2.8h100.2v-103z" class="st1"/>
  <path d="M728.3 134.3V85.1h-2.1v49.2h-45.4V85.1h-2v49.2h-47.2V39.7h122l21.8 21.8v72.8z" class="st0"/>
  <path d="M751.8 43.9l19.3 19.3V130h-38.7V80.8H722V130h-36.9V80.8h-10.5V130h-38.7V43.9h115.9m3.6-8.5h-128v103.1h152.3V59.8l-2.5-2.5L757.9 38l-2.5-2.6z" class="st1"/>
  <path d="M777.5 167.7V61.5l21.8-21.8h86.8v94.6h-61.5v33.4z" class="st0"/>
  <path d="M881.9 43.9V130h-61.5v33.4h-38.7V63.3L801 44h80.9m8.5-8.6h-92.8l-2.5 2.5-19.3 19.3-2.5 2.5v112.2H829v-33.4h61.5V35.4h-.1z" class="st1"/>
  <g>
    <path d="M886.4 134.3v-82l20.5-14.4h65.4V120l-20.5 14.3z" class="st0"/>
    <path d="M968 42.2v26.4h-38.7v7H968v42.2l-17.6 12.3h-59.8v-26.4h38.7v-5.3h-38.7V54.5l17.6-12.3H968m8.5-8.5h-71l-2.2 1.5-17.6 12.3-3.6 2.5v88.4h71l2.2-1.5 17.6-12.3 3.6-2.5V33.7z" class="st1"/>
  </g>
  <path d="M50.7 82.6h22.8v10.5H50.7zM159.6 82.6h29.9v10.5h-29.9zM268.6 82.6h19.3v10.5h-19.3zM375.8 82.6h38.7v10.5h-38.7zM558.5 82.6h29.9v10.5h-29.9zM820.4 82.6h22.8v10.5h-22.8z" class="st1"/>
</svg>
