<svg xmlns="http://www.w3.org/2000/svg" id="Layer_1" x="0" y="0" version="1.1" viewBox="0 0 512 512" xml:space="preserve">
  <style>
    .st1{fill:#6c9d41}
  </style>
  <path fill="#4e7838" d="M416.5 424.4c-9.8-29.3-26.1-44.5-26.1-44.5s-46.7-35.8-64.1-63c-17.4-27.1-25-32.6-25.5-93.4h51.6s4.3-6.5 6.5-15.2 2.2-19.5 2.2-19.5l-59.5-39.2A80.3 80.3 0 00287.3 9.3 81 81 0 01319 76.8c-2.2 53.2-56.5 73.8-56.5 73.8l33.7 38s-1.1 11.9-2.2 18.5c-1.1 6.5-5.4 17.4-5.4 17.4l-77.6-1.1c-.1 6.8-.2 12.9-.5 18.5 19.5 1.1 48.8 9.8 55.3 16.3s11.9 14.1 9.8 25l-19.5 101c-3.2 16.3-9.8 35.8-23.9 45.6-14.1 9.8-28.2 9.8-51 9.8s-43.4-1.1-64.1-5.4a68.5 68.5 0 01-22.1-8.5c-9.3 28.7-7.2 52-7.2 52 2.8 5.7 10.9 15.2 59.7 23.9a604.5 604.5 0 00108.5 6.5c2.6.1 60.7 2 108.5-6.5 48.9-8.7 56.9-18.2 59.7-23.9-.1-.1 2.1-24-7.7-53.3z"/>
  <path d="M181.1 439.6c22.8 0 36.9 0 51-9.8 14.1-9.8 20.6-29.3 23.9-45.6s17.4-90.1 19.5-101c2.2-10.9-3.3-18.5-9.8-25-6.5-6.5-35.7-15.2-55.3-16.3-1.9 43.8-9.6 50.8-25.1 74.9-17.4 27.1-64.1 63-64.1 63s-16.3 15.2-26.1 44.5l-.4 1.3c4.8 3 12 6.4 22.1 8.5 20.8 4.4 41.5 5.5 64.3 5.5zM294 207.2c1.1-6.5 2.2-18.5 2.2-18.5l-33.7-38s54.3-20.6 56.5-73.8a80.9 80.9 0 00-31.8-67.6 80.4 80.4 0 00-76.9 140.2l-59.6 39.2s0 10.9 2.2 19.5a55 55 0 006.5 15.2h51.5l77.6 1.1c.1 0 4.4-10.8 5.5-17.3z" class="st1"/>
  <path fill="#94bb48" d="M220.2 28c-13.8 11.3-18.5 21.7-19.5 31.5S199.6 74.7 205 78s23.9 0 39.1-13S268 40 268 34.6s-2.2-11.9-10.9-14.1c-8.7-2.3-25-2.3-36.9 7.5z"/>
</svg>